Coordinates
version=1
nRows=27
nColumns=36
inDegrees=yes

Units are S.I. units (second, meters, Newtons, ...)
If the header above contains a line with 'inDegrees', this indicates whether rotational values are in degrees (yes) or radians (no).

endheader
time	pelvis_tilt	pelvis_list	pelvis_rotation	pelvis_tx	pelvis_ty	pelvis_tz	hip_flexion_r	hip_adduction_r	hip_rotation_r	knee_angle_r	knee_angle_r_beta	ankle_angle_r	subtalar_angle_r	mtp_angle_r	hip_flexion_l	hip_adduction_l	hip_rotation_l	knee_angle_l	knee_angle_l_beta	ankle_angle_l	subtalar_angle_l	mtp_angle_l	lumbar_extension	lumbar_bending	lumbar_rotation	arm_flex_r	arm_add_r	arm_rot_r	elbow_flex_r	pro_sup_r	arm_flex_l	arm_add_l	arm_rot_l	elbow_flex_l	pro_sup_l
2.95	-4.9843891	0.48439165	-5.29459684	0.22061865	0.945654	-0.06721904	17.20695846	-3.44599953	-0.09854233	-12.56235421142857	0.4240787	4.34453946	-3.23121788	-7.49999987	15.45534083	-8.96348842	-6.96700187	-11.349071249999994	0.40127402	4.56845054	-2.08530091	-7.49999987	-9.46969517	0.93465645	3.73278937	1.71134178	-14.15856361	-15.099061	28.56553211	88.09180207	4.68613277	-14.68539915	-4.45306734	22.22655273	77.97131888
2.9666667	-4.92923976	0.38280651	-5.38073174	0.22941261	0.94768712	-0.06708595	15.69674938	-3.39859789	-0.43233568	-10.959746330714296	0.39395632	3.84627718	-2.8327081	-7.49999987	13.38851323	-8.75179793	-7.16588216	-8.793068505714288	0.35323176	4.41992028	-1.23439492	-7.49999987	-8.08482658	1.15777003	3.63524335	0.7761869	-14.04850086	-15.63688066	28.11480768	87.89761762	3.40857564	-14.47302734	-5.44689011	22.29006276	78.0928152
2.9833333	-5.26414217	0.30567495	-5.53262354	0.22880283	0.94964145	-0.06726556	15.101373	-3.31112216	-0.73478328	-9.770976856428575	0.37161238	3.20789914	-2.62906328	-7.49999987	11.95153648	-8.51658542	-7.2562204	-6.20485592142856	0.3045841	3.950757	-0.72941497	-7.49999987	-6.64933365	1.39706019	3.7088635	0.08635993	-14.09013449	-15.67701442	27.79087021	87.80967256	2.57239225	-14.30647043	-5.62715767	22.08713621	78.07061438
3.0	-4.99008976	0.31481422	-5.6734829	0.23335513	0.95201149	-0.06897986	13.96154786	-3.34693931	-0.65331779	-8.585063324285713	0.34932213	2.83524004	-2.78823743	-7.49999987	10.22245184	-8.10837052	-7.12403955	-4.146442941428575	0.26589447	3.52239547	-0.7063634	-7.49999987	-6.11899116	1.44500172	3.75343626	-0.10966208	-14.16384455	-15.68019223	27.10676774	87.11363218	2.16487252	-14.09548009	-6.08809942	21.78365093	77.39361336
3.0166667	-4.98006467	0.26014598	-5.64300726	0.23730266	0.95554847	-0.06730313	12.97721499	-3.20553877	-0.54184085	-7.180415032857141	0.32292056	2.46963714	-2.50957034	-7.49999987	8.91931687	-7.91174218	-7.07575615	-2.2834478185714318	0.23087789	2.91110397	-0.45679663	-7.49999987	-5.40052884	1.55046211	3.68548132	-0.29551175	-14.18047273	-15.63856522	26.50509654	86.72872736	1.79311173	-13.94264791	-6.40777235	21.52872269	77.03495314
3.0333333	-4.88070528	0.18109884	-5.47296239	0.24184438	0.95514938	-0.06937007	11.68067357	-3.1316588	-0.5390955	-5.5282875521428565	0.29186742	2.06279993	-2.50851512	-7.49999987	7.82698739	-7.73600842	-7.11109566	-0.8406607307142906	0.20375947	2.4201716	-0.10430164	-7.49999987	-4.82429018	1.71117587	3.4592411	-0.45017018	-14.17924344	-15.6754785	25.90116123	86.68905973	1.32230911	-13.73230281	-6.98228731	21.54717449	77.12544372
3.05	-5.23424752	0.24191044	-5.28875882	0.24155355	0.95837993	-0.06969071	11.03529407	-3.11003358	-0.38821015	-3.9297895842857145	0.26182228	1.88734011	-2.25039052	-7.49999987	7.39588222	-7.48245605	-7.17413377	0.5098225592857091	0.17837598	1.88816111	0.31091534	-7.49999987	-3.84282589	1.70769354	3.29707533	-0.84554459	-14.15336142	-15.7147477	25.69307383	86.61101426	1.02914831	-13.60547744	-7.12467413	21.51641009	77.12263187
3.0666667	-4.84266209	0.10424372	-4.98798201	0.24161562	0.95496624	-0.06983249	9.61950782	-2.94325223	-0.24964918	-2.285573299999996	0.23091784	1.39304868	-2.64529434	-7.49999987	6.35288152	-7.41091757	-7.29154847	1.547547596428572	0.15887106	1.6165896	0.61639491	-7.49999987	-3.99457315	1.87244463	3.15982124	-0.71428226	-14.17268242	-15.90759741	25.06956734	86.20731957	1.06813221	-13.37930729	-7.81451621	21.57643074	77.12884882
3.0833333	-4.64313506	0.01533216	-4.80714813	0.24575489	0.95693691	-0.06830317	8.41959173	-2.78370414	-0.19813281	-0.7912366157142969	0.2028305	1.30484418	-2.52155472	-7.49999987	5.72420826	-7.42078935	-7.37423098	2.15402933499999	0.14747172	1.62672127	1.0120103	-7.49999987	-3.79927631	1.92883189	3.05696833	-0.85627632	-14.14324469	-15.82595974	24.78336489	84.26773462	1.01038048	-13.13309494	-8.45913903	21.49046302	75.69010948
3.1	-4.56753335	-0.04851715	-4.69289473	0.2462819	0.96090161	-0.06797236	7.54058944	-2.6259456	-0.15303326	0.4579405992857062	0.17935115	1.07277928	-2.35883239	-7.49999987	5.23467075	-7.43892799	-7.5661986	2.7550108571428495	0.13617575	1.52214889	1.48052348	-7.49999987	-3.51422558	1.98090954	3.03216938	-0.95612578	-14.11210841	-15.68847563	24.37103874	82.79848873	1.08245848	-12.89294145	-8.96076633	21.3007822	74.7684668
3.1166667	-4.60133782	-0.0704202	-4.5225891	0.25460899	0.95744004	-0.06883458	6.80918966	-2.5578873	-0.07344301	1.307121529285709	0.16339007	1.12906739	-2.34305616	-7.49999987	4.77596012	-7.40597788	-7.50383949	3.235512065714289	0.12714432	1.56998295	1.61777498	-7.49999987	-2.8934985	2.0320136	2.97995198	-1.29309973	-14.03494262	-15.70356714	24.00942323	82.854204	0.89682844	-12.76345367	-9.0397539	21.02221379	74.84288859
3.1333333	-4.2888049	-0.28327593	-4.21350615	0.25474298	0.95597818	-0.06904214	5.75013404	-2.32451637	-0.14523459	2.152875436428573	0.1474934	0.80831167	-2.41588246	-7.49999987	4.01183981	-7.54648532	-7.46672641	3.7407464799999985	0.11764801	1.82619725	2.13058135	-7.49999987	-3.01518649	2.22846875	2.65630215	-1.1336308	-14.01094079	-15.40167434	23.39418058	81.66949715	0.90380855	-12.19725228	-12.51617501	20.97532798	78.82527266
3.15	-4.00607087	-0.44150123	-4.01395065	0.25879794	0.95588115	-0.06748073	4.84545746	-2.12269845	-0.05265966	2.7077038292857196	0.13706493	0.73928322	-2.66989569	-7.49999987	3.1588635	-7.6789136	-7.52871912	4.378760405714289	0.105656	1.97691779	2.48346503	-7.49999987	-2.85799105	2.36155215	2.62516271	-1.27053318	-13.87787777	-15.48597914	23.03703369	80.93893312	0.85966248	-12.05893114	-12.73644914	20.80952681	78.16655839
3.1666667	-3.9348284	-0.59788093	-3.88158116	0.25904944	0.95445364	-0.06748611	4.28603326	-1.90667448	-0.10308875	3.200844111428566	0.12779594	0.79393923	-2.71939079	-7.49999987	2.64634611	-7.85207197	-7.60053311	4.9479684885714335	0.09495724	2.1509001	2.92822424	-7.49999987	-2.62177336	2.5163092	2.62946008	-1.40422275	-13.76537731	-15.57223882	22.80331873	80.52661571	0.73825266	-11.85889606	-12.98729597	20.65836888	77.8021051
3.1833333	-3.59642708	-0.7433067	-3.75169629	0.26740952	0.95258791	-0.06827393	3.30888332	-1.78764784	-0.24327872	3.6694146164285684	0.11898876	0.8565797	-2.50967988	-7.49999987	1.67059915	-7.97536131	-7.8848796	5.60404072357143	0.08262581	2.378783	3.60503881	-7.49999987	-2.44826434	2.65244116	2.48222802	-1.52672083	-13.62089352	-15.94364536	22.31136406	80.45527347	0.65039563	-11.59552986	-13.60781969	20.15674884	77.77224359
3.2	-3.63380636	-0.79887281	-3.85820992	0.26322723	0.94980269	-0.06560572	3.12026377	-1.67088243	-0.28124941	3.817094347142856	0.11621299	1.1097473	-2.60592628	-7.49999987	1.45806965	-8.08394931	-8.06877123	5.870104796428578	0.07762491	2.55925649	3.50349201	-7.49999987	-2.15199579	2.67674199	2.555067	-1.57741744	-13.42860531	-15.9386596	22.27981881	80.45291591	0.56702965	-11.51650862	-13.67472747	20.10613171	77.76455794
3.2166667	-3.35926909	-0.77485206	-4.0417028	0.26738036	0.9487235	-0.06823948	2.47412076	-1.71624522	0.03364603	4.091468512142853	0.11105589	1.44554481	-2.54683086	-7.49999987	0.70581963	-8.02451496	-8.41784275	6.321955871428571	0.06913198	2.60568751	3.9300274	-7.49999987	-2.09103848	2.59073328	2.74945277	-1.67517561	-13.32304107	-16.29116423	22.0411037	80.33762619	0.56562978	-11.26894505	-14.55654036	19.72601621	77.63602942
3.2333333	-3.33539769	-0.73730008	-4.07646306	0.26788085	0.95154104	-0.06782338	2.14277198	-1.77039886	0.02025692	4.337696776428572	0.10642782	1.74017431	-2.37595715	-7.49999987	0.35879958	-7.9354396	-8.42718808	6.599973481428577	0.0639064	2.56987996	3.8274255	-7.49999987	-1.96442819	2.55686809	2.74879335	-1.82170529	-13.16490668	-16.25988968	22.56176213	78.47535144	0.20388797	-11.06604348	-14.89925162	20.13914189	75.92237912
3.25	-3.38950417	-0.68879895	-4.10545625	0.27200249	0.9534325	-0.07027679	1.90219476	-1.90031342	0.07011205	4.614166197857145	0.10123134	1.80178316	-2.2619188	-7.49999987	0.13227515	-7.83068521	-8.80593156	6.83090005857143	0.05956594	2.67272178	4.54542305	-7.49999987	-1.53215334	2.54372275	2.78440412	-1.84968895	-13.03098183	-16.27710472	22.16720198	78.68459895	0.19618152	-10.79548649	-15.53681806	19.33417853	76.13257456
3.2666667	-3.34721244	-0.6227752	-4.08365903	0.27243692	0.95365981	-0.06989941	1.53131795	-2.02611787	0.02356182	4.947375354285711	0.09496839	1.80887692	-2.06146164	-7.49999987	-0.21622978	-7.67245595	-8.85430753	7.1455085085714245	0.0536526	2.55677435	4.55127081	-7.49999987	-1.39236865	2.47011394	2.73274664	-2.06795703	-12.85091516	-16.1390572	22.64972525	77.24486439	-0.13887604	-10.60378593	-15.77578066	19.6614237	74.84950895
3.2833333	-3.4115438	-0.58091373	-4.10307272	0.26757893	0.95204502	-0.06763225	1.55165164	-2.06004356	-0.03049143	5.108365023571423	0.09194245	1.96295322	-2.10785068	-7.49999987	-0.13372459	-7.60204849	-8.98741535	7.229054466428565	0.05208229	2.59572035	4.49748742	-7.49999987	-1.31091288	2.39928468	2.81577785	-1.89894483	-12.64674602	-16.08913027	22.73356547	77.26678999	-0.09420692	-10.51420991	-15.77803341	19.63825003	74.86579641
3.3	-3.58281159	-0.37346507	-4.15401715	0.27276112	0.95363115	-0.06959508	1.48941914	-2.29009611	0.05375622	5.402710067142863	0.08640999	2.0855218	-1.78892503	-7.49999987	-0.09098281	-7.34133721	-9.24090571	7.43275487428572	0.04825356	2.40200528	4.77868756	-7.49999987	-0.82686495	2.15922437	2.74727874	-2.0209085	-12.45180882	-15.88706063	22.97944313	77.48458441	-0.23254044	-10.47266089	-16.04769879	19.12908716	75.02660877
3.3166667	-3.66910155	-0.28105866	-4.20824291	0.27253063	0.9552841	-0.06960861	1.45926722	-2.42461084	-0.01876801	5.6234151342857075	0.08226165	2.05792367	-1.56072352	-7.49999987	-0.0321928	-7.20490572	-9.44293256	7.492722778571419	0.04712642	2.3870862	4.95155244	-7.49999987	-0.61978682	2.05708389	2.81262387	-2.07549122	-12.38933093	-15.2990518	23.20062399	76.43771012	-0.1516079	-10.33179249	-16.42177902	18.70517581	74.06702165
3.3333333	-3.64813914	-0.21666491	-4.22055338	0.27290591	0.95155463	-0.06945974	1.32058497	-2.51626468	-0.06220198	5.798047402857151	0.07897929	1.98813793	-1.55192204	-7.49999987	-0.08306373	-7.09461545	-9.4411338	7.554127814285721	0.04597226	2.3423791	4.85513339	-7.49999987	-0.54199272	1.96261387	2.78719689	-2.03969985	-12.3390281	-14.90418623	23.35228497	76.09973205	-0.14766239	-10.24462777	-16.69209409	18.5075013	73.79485182
3.35	-3.69893883	-0.16583452	-4.19812674	0.27262472	0.95351994	-0.06954161	1.31365059	-2.59658091	-0.2521792	5.946265073571425	0.07619341	1.87504716	-1.5017858	-7.49999987	-0.09197274	-7.02416513	-9.53820819	7.65990816428571	0.04398402	2.33750353	5.10909552	-7.49999987	-0.51614083	1.86060228	2.75115694	-2.05659294	-12.29836201	-14.80045639	23.582032	78.27979127	-0.26439883	-10.19658453	-17.33585696	18.67785516	76.65814212
3.3666667	-3.57572044	-0.19903596	-4.17697284	0.2728743	0.95196612	-0.06941311	1.11759299	-2.59238388	-0.36862329	6.12649804857142	0.07280578	1.7002582	-1.49386638	-7.49999987	-0.33715766	-7.04342595	-9.50239901	7.783007225714286	0.04167027	2.35334014	5.02664161	-7.49999987	-0.83118001	1.8443719	2.86820276	-2.10537778	-12.22947487	-14.79957819	24.14525919	75.96274436	-0.33867083	-10.07098645	-17.51352724	19.3038622	74.43382707
3.3833333	-3.80548202	-0.1789793	-4.20103434	0.27271274	0.95368643	-0.06947509	1.37605163	-2.60929221	-0.56927035	6.141411054285712	0.07252547	1.62102071	-1.32233943	-7.49999987	-0.1655535	-7.03389402	-9.64156448	7.858718807857144	0.04024721	2.33079802	5.31624325	-7.49999987	-0.48457706	1.79391664	2.89108886	-1.77261888	-12.20859284	-14.83771251	23.41635402	78.4218758	-0.09002319	-10.01272873	-18.28907115	18.44589443	77.13808496
